<svg xmlns="http://www.w3.org/2000/svg" style="display:none">
<symbol id="icon-arrow-16" viewBox="0 0 20 16">

<path d="M19.7179 8.53774C20.1015 8.14046 20.0905 7.50739 19.6932 7.12374L13.2191 0.871819C12.8219 0.48817 12.1888 0.49922 11.8051 0.8965C11.4215 1.29378 11.4325 1.92685 11.8298 2.3105L17.5845 7.86776L12.0273 13.6225C11.6436 14.0198 11.6547 14.6528 12.052 15.0365C12.4492 15.4201 13.0823 15.4091 13.466 15.0118L19.7179 8.53774ZM1.01873 9.15707L19.016 8.84293L18.9811 6.84324L0.983829 7.15738L1.01873 9.15707Z" fill="#FBFBFB"/>

</symbol>
<symbol id="icon-chevron-down" viewBox="0 0 20 20">

<path d="M5 7.5L10 12.5L15 7.5" stroke="#FBFBFB" stroke-width="2" stroke-linecap="round" stroke-linejoin="round"/>

</symbol>
<symbol id="icon-clock" viewBox="0 0 20 20">

<g clip-path="url(#clip0_31_2474)">
<path d="M10 18.3333C14.6024 18.3333 18.3333 14.6023 18.3333 9.99996C18.3333 5.39759 14.6024 1.66663 10 1.66663C5.39763 1.66663 1.66667 5.39759 1.66667 9.99996C1.66667 14.6023 5.39763 18.3333 10 18.3333Z" stroke="#11101C" stroke-width="1.5" stroke-linecap="round" stroke-linejoin="round"/>
<path d="M10 5V10L13.3333 11.6667" stroke="#11101C" stroke-width="1.5" stroke-linecap="round" stroke-linejoin="round"/>
</g>
<defs>
<clipPath id="clip0_31_2474">
<rect width="20" height="20" fill="white"/>
</clipPath>
</defs>

</symbol>
<symbol id="icon-eye" viewBox="0 0 20 20">

<g clip-path="url(#clip0_31_2517)">
<path d="M0.833313 10C0.833313 10 4.16665 3.33337 9.99998 3.33337C15.8333 3.33337 19.1666 10 19.1666 10C19.1666 10 15.8333 16.6667 9.99998 16.6667C4.16665 16.6667 0.833313 10 0.833313 10Z" stroke="#11101C" stroke-width="2" stroke-linecap="round" stroke-linejoin="round"/>
<path d="M10 12.5C11.3807 12.5 12.5 11.3807 12.5 10C12.5 8.61929 11.3807 7.5 10 7.5C8.61929 7.5 7.5 8.61929 7.5 10C7.5 11.3807 8.61929 12.5 10 12.5Z" stroke="#11101C" stroke-width="2" stroke-linecap="round" stroke-linejoin="round"/>
</g>
<defs>
<clipPath id="clip0_31_2517">
<rect width="20" height="20" fill="white"/>
</clipPath>
</defs>

</symbol>
<symbol id="icon-eye-off" viewBox="0 0 20 20">

<g clip-path="url(#clip0_31_2514)">
<path d="M14.95 14.9499C13.5255 16.0358 11.7909 16.6373 9.99998 16.6666C4.16665 16.6666 0.833313 9.99994 0.833313 9.99994C1.86989 8.06819 3.30759 6.38045 5.04998 5.04994M8.24998 3.53327C8.82359 3.39901 9.41087 3.33189 9.99998 3.33327C15.8333 3.33327 19.1666 9.99994 19.1666 9.99994C18.6608 10.9463 18.0575 11.8372 17.3666 12.6583M11.7666 11.7666C11.5378 12.0122 11.2618 12.2092 10.9551 12.3459C10.6484 12.4825 10.3174 12.556 9.98172 12.5619C9.64605 12.5678 9.31262 12.5061 9.00132 12.3803C8.69003 12.2546 8.40725 12.0675 8.16985 11.8301C7.93246 11.5927 7.74531 11.3099 7.61957 10.9986C7.49383 10.6873 7.43209 10.3539 7.43801 10.0182C7.44393 9.68252 7.5174 9.35148 7.65404 9.04481C7.79068 8.73815 7.98769 8.46215 8.23331 8.23327" stroke="#11101C" stroke-width="2" stroke-linecap="round" stroke-linejoin="round"/>
<path d="M0.833313 0.833374L19.1666 19.1667" stroke="#11101C" stroke-width="2" stroke-linecap="round" stroke-linejoin="round"/>
</g>
<defs>
<clipPath id="clip0_31_2514">
<rect width="20" height="20" fill="white"/>
</clipPath>
</defs>

</symbol>
<symbol id="icon-fecheck2" viewBox="0 0 20 16">

<path fill-rule="evenodd" clip-rule="evenodd" d="M2.5 5.5L0 8L7.5 15.5L20 3L17.5 0.5L7.5 10.5L2.5 5.5Z" fill="#FBFBFB"/>

</symbol>
<symbol id="icon-map-pin" viewBox="0 0 16 16">

<g clip-path="url(#clip0_31_2509)">
<path d="M14 6.66663C14 11.3333 8 15.3333 8 15.3333C8 15.3333 2 11.3333 2 6.66663C2 5.07533 2.63214 3.5492 3.75736 2.42399C4.88258 1.29877 6.4087 0.666626 8 0.666626C9.5913 0.666626 11.1174 1.29877 12.2426 2.42399C13.3679 3.5492 14 5.07533 14 6.66663Z" stroke="#11101C" stroke-width="1.5" stroke-linecap="round" stroke-linejoin="round"/>
<path d="M8 8.66663C9.10457 8.66663 10 7.7712 10 6.66663C10 5.56206 9.10457 4.66663 8 4.66663C6.89543 4.66663 6 5.56206 6 6.66663C6 7.7712 6.89543 8.66663 8 8.66663Z" stroke="#11101C" stroke-width="1.5" stroke-linecap="round" stroke-linejoin="round"/>
</g>
<defs>
<clipPath id="clip0_31_2509">
<rect width="16" height="16" fill="white"/>
</clipPath>
</defs>

</symbol>
<symbol id="icon-mdi_user" viewBox="0 0 24 24">

<path d="M12 4C13.0609 4 14.0783 4.42143 14.8284 5.17157C15.5786 5.92172 16 6.93913 16 8C16 9.06087 15.5786 10.0783 14.8284 10.8284C14.0783 11.5786 13.0609 12 12 12C10.9391 12 9.92172 11.5786 9.17157 10.8284C8.42143 10.0783 8 9.06087 8 8C8 6.93913 8.42143 5.92172 9.17157 5.17157C9.92172 4.42143 10.9391 4 12 4ZM12 14C16.42 14 20 15.79 20 18V20H4V18C4 15.79 7.58 14 12 14Z" fill="#F03F3B"/>

</symbol>
<symbol id="icon-heart-hover" viewBox="0 0 26 26">

<path d="M22.5767 4.99419C22.0234 4.44061 21.3664 4.00147 20.6433 3.70187C19.9202 3.40226 19.1452 3.24805 18.3625 3.24805C17.5798 3.24805 16.8048 3.40226 16.0817 3.70187C15.3586 4.00147 14.7017 4.44061 14.1484 4.99419L13 6.14252L11.8517 4.99419C10.734 3.87652 9.21815 3.24863 7.63753 3.24863C6.05691 3.24863 4.54103 3.87652 3.42336 4.99419C2.30569 6.11186 1.6778 7.62774 1.6778 9.20836C1.6778 10.789 2.30569 12.3049 3.42336 13.4225L4.57169 14.5709L13 22.9992L21.4284 14.5709L22.5767 13.4225C23.1303 12.8692 23.5694 12.2122 23.869 11.4892C24.1686 10.7661 24.3228 9.99105 24.3228 9.20836C24.3228 8.42566 24.1686 7.65064 23.869 6.92756C23.5694 6.20448 23.1303 5.54751 22.5767 4.99419Z" fill="#F03F3B" stroke="#F03F3B" stroke-width="2" stroke-linecap="round" stroke-linejoin="round"/>

</symbol>
<symbol id="icon-heart" viewBox="0 0 26 26">

<path d="M22.5767 4.99419C22.0234 4.44061 21.3664 4.00147 20.6433 3.70187C19.9202 3.40226 19.1452 3.24805 18.3625 3.24805C17.5798 3.24805 16.8048 3.40226 16.0817 3.70187C15.3586 4.00147 14.7017 4.44061 14.1484 4.99419L13 6.14252L11.8517 4.99419C10.734 3.87652 9.21815 3.24863 7.63753 3.24863C6.05691 3.24863 4.54103 3.87652 3.42336 4.99419C2.30569 6.11186 1.6778 7.62774 1.6778 9.20836C1.6778 10.789 2.30569 12.3049 3.42336 13.4225L4.57169 14.5709L13 22.9992L21.4284 14.5709L22.5767 13.4225C23.1303 12.8692 23.5694 12.2122 23.869 11.4892C24.1686 10.7661 24.3228 9.99105 24.3228 9.20836C24.3228 8.42566 24.1686 7.65064 23.869 6.92756C23.5694 6.20448 23.1303 5.54751 22.5767 4.99419Z" stroke="#11101C" stroke-width="2" stroke-linecap="round" stroke-linejoin="round"/>

</symbol>
<symbol id="icon-star" viewBox="0 0 16 16">

<g clip-path="url(#clip0_31_2512)">
<path d="M9.7998 4.69727C9.95896 4.99878 10.249 5.20939 10.585 5.26758L14.3848 5.92383L11.6973 8.69141C11.4597 8.93598 11.3489 9.27679 11.3975 9.61426L11.9463 13.4316L8.48535 11.7305L8.36816 11.6807C8.13008 11.5961 7.86992 11.5961 7.63184 11.6807L7.51465 11.7305L4.05273 13.4316L4.60254 9.61426C4.65107 9.27679 4.54025 8.93598 4.30273 8.69141L1.61426 5.92383L5.41504 5.26758C5.75098 5.20939 6.04104 4.99878 6.2002 4.69727L8 1.28613L9.7998 4.69727Z" fill="#FFC531" stroke="#FFC531" stroke-width="1.2"/>
</g>
<defs>
<clipPath id="clip0_31_2512">
<rect width="16" height="16" fill="white"/>
</clipPath>
</defs>

</symbol>
<symbol id="icon-x" viewBox="0 0 32 32">

<path d="M24 8L8 24" stroke="#11101C" stroke-width="2.5" stroke-linecap="round" stroke-linejoin="round"/>
<path d="M8 8L24 24" stroke="#11101C" stroke-width="2.5" stroke-linecap="round" stroke-linejoin="round"/>

</symbol>
</svg>